HIERARCHY
ROOT Joint1
{
	OFFSET 0.000000 0.000000 0.000000
	CHANNELS 6 Xposition Yposition Zposition Xrotation Yrotation Zrotation
	JOINT Joint2
	{
		OFFSET -0.000000 0.000000 1.456275
		CHANNELS 6 Xposition Yposition Zposition Xrotation Yrotation Zrotation
		JOINT Joint3
		{
			OFFSET -0.000000 0.000002 1.471446
			CHANNELS 6 Xposition Yposition Zposition Xrotation Yrotation Zrotation
			JOINT Joint4
			{
				OFFSET 0.625745 0.000000 0.917755
				CHANNELS 6 Xposition Yposition Zposition Xrotation Yrotation Zrotation
				JOINT Joint5
				{
					OFFSET -0.629534 0.000001 0.940221
					CHANNELS 6 Xposition Yposition Zposition Xrotation Yrotation Zrotation
					JOINT Joint6
					{
						OFFSET -0.000001 0.113772 1.960660
						CHANNELS 6 Xposition Yposition Zposition Xrotation Yrotation Zrotation
						JOINT Joint7
						{
							OFFSET -0.669733 -0.113771 0.388340
							CHANNELS 6 Xposition Yposition Zposition Xrotation Yrotation Zrotation
							End Site
							{
								OFFSET 0.005509 0.005509 0.438980
							}
						}
					}
				}
			}
		}
	}
}
MOTION
Frames: 17
Frame Time: 0.041667
0.000000 0.000000 0.000000 -0.000000 1.019410 -0.002941 -0.000000 -0.000000 1.456275 0.000000 -44.976994 -0.000000 -0.000000 0.000002 1.471446 0.000000 -1.133460 -0.053554 0.625744 0.000000 0.917755 0.000004 135.011106 -0.000001 -0.629533 0.000001 0.940221 -0.000000 1.709737 -0.020017 -0.000001 0.113772 1.960660 -88.315220 89.983111 -0.007211 -0.669733 -0.113771 0.388341 -0.704636 3.566197 134.934021 
0.000000 0.000000 0.000000 -0.000000 1.019410 -0.002847 -0.000000 -0.000000 1.456275 0.000000 -44.964044 -0.000000 -0.000001 0.000002 1.471446 0.000000 -1.133460 -0.120122 0.625744 0.000000 0.917755 0.000004 134.984072 -0.000001 -0.629534 0.000001 0.940221 -0.000000 1.709736 -0.037420 -0.000001 0.113772 1.960660 -88.323457 89.990249 -0.011745 -0.669733 -0.113771 0.388340 -0.702952 3.566194 134.839163 
0.000000 0.000000 0.000000 -0.000000 1.019410 -0.002681 -0.000000 0.000000 1.456275 0.000000 -44.941033 0.000000 -0.000001 0.000002 1.471446 0.000000 -1.133458 -0.238262 0.625745 0.000000 0.917755 0.000004 134.936097 -0.000001 -0.629534 0.000001 0.940221 -0.000000 1.709737 -0.068306 -0.000001 0.113772 1.960660 -88.237855 90.002926 0.041379 -0.669733 -0.113771 0.388340 -0.699962 3.566181 134.670854 
0.000000 0.000000 0.000000 -0.000000 1.019410 -0.002435 -0.000000 0.000000 1.456275 0.000000 -44.906841 -0.000000 -0.000000 0.000002 1.471446 0.000000 -1.133463 -0.413860 0.625745 0.000000 0.917755 0.000004 134.864763 -0.000001 -0.629534 0.000001 0.940221 -0.000000 1.709736 -0.114213 -0.000001 0.113772 1.960661 -88.295269 90.021770 0.006048 -0.669733 -0.113771 0.388340 -0.695518 3.566145 134.420664 
0.000000 0.000000 0.000000 -0.000000 1.019410 -0.002099 -0.000000 -0.000000 1.456275 0.000000 -44.860327 0.000000 -0.000000 0.000002 1.471446 0.000000 -1.133457 -0.652800 0.625744 0.000000 0.917755 0.000004 134.767719 -0.000001 -0.629534 0.000001 0.940221 0.000000 1.709736 -0.176680 -0.000001 0.113772 1.960660 -88.299886 90.047404 0.002837 -0.669733 -0.113771 0.388340 -0.689471 3.566067 134.080220 
0.000000 0.000000 0.000000 -0.000000 1.019410 -0.001667 -0.000000 -0.000000 1.456275 0.000000 -44.800328 0.000000 -0.000000 0.000002 1.471446 0.000000 -1.133457 -0.960969 0.625745 0.000000 0.917755 0.000004 134.642577 -0.000001 -0.629533 0.000001 0.940221 -0.000000 1.709736 -0.257245 -0.000001 0.113772 1.960661 -88.301451 90.080469 0.001570 -0.669733 -0.113771 0.388340 -0.681674 3.565912 133.641148 
0.000000 0.000000 0.000000 -0.000000 1.019410 -0.001129 -0.000000 -0.000000 1.456275 0.000000 -44.725704 -0.000000 -0.000000 0.000002 1.471446 -0.000000 -1.133462 -1.344251 0.625745 0.000000 0.917755 0.000004 134.486903 -0.000001 -0.629534 0.000001 0.940221 -0.000000 1.709737 -0.357448 -0.000000 0.113772 1.960660 -88.302386 90.121594 0.001144 -0.669733 -0.113771 0.388340 -0.671978 3.565636 133.095047 
0.000000 0.000000 0.000000 -0.000000 1.019410 -0.000477 -0.000000 -0.000000 1.456275 0.000000 -44.635310 0.000000 -0.000000 0.000002 1.471446 -0.000000 -1.133457 -1.808533 0.625745 0.000000 0.917755 0.000004 134.298335 -0.000001 -0.629533 0.000001 0.940221 -0.000000 1.709736 -0.478827 -0.000001 0.113772 1.960661 -88.302830 90.171399 0.000765 -0.669733 -0.113771 0.388339 -0.660237 3.565179 132.433543 
0.000000 0.000000 0.000000 -0.000000 1.019410 0.000297 -0.000000 0.000000 1.456275 -0.000000 -44.527998 0.000000 -0.000000 0.000002 1.471446 -0.000000 -1.133462 -2.359699 0.625745 0.000000 0.917756 0.000004 134.074469 -0.000001 -0.629533 0.000001 0.940221 -0.000000 1.709737 -0.622920 -0.000001 0.113772 1.960661 -88.303042 90.230535 0.000530 -0.669733 -0.113771 0.388341 -0.646308 3.564460 131.648235 
0.000000 0.000000 0.000000 -0.000000 1.019410 0.001201 -0.000000 0.000000 1.456275 -0.000000 -44.402629 -0.000000 -0.000000 0.000002 1.471446 -0.000000 -1.133459 -3.003637 0.625745 0.000000 0.917755 0.000004 133.812954 -0.000001 -0.629534 0.000001 0.940221 -0.000000 1.709736 -0.791266 -0.000001 0.113772 1.960660 -88.303281 90.299616 0.000441 -0.669733 -0.113771 0.388340 -0.630047 3.563380 130.730763 
0.000000 0.000000 0.000000 -0.000000 1.019410 0.002244 -0.000000 -0.000000 1.456275 -0.000000 -44.258051 0.000000 -0.000000 0.000002 1.471446 -0.000000 -1.133459 -3.746229 0.625745 0.000000 0.917755 0.000003 133.511333 -0.000001 -0.629534 0.000001 0.940221 0.000000 1.709737 -0.985404 -0.000000 0.113772 1.960661 -88.303384 90.379290 0.000340 -0.669733 -0.113771 0.388341 -0.611320 3.561811 129.672726 
0.000000 0.000000 0.000000 -0.000000 1.019410 0.003433 -0.000000 0.000000 1.456275 -0.000000 -44.093116 0.000000 -0.000000 0.000002 1.471446 -0.000000 -1.133461 -4.593362 0.625745 0.000000 0.917755 0.000004 133.167283 -0.000002 -0.629534 0.000001 0.940221 0.000000 1.709736 -1.206873 -0.000001 0.113772 1.960660 -88.303472 90.470172 0.000261 -0.669733 -0.113771 0.388340 -0.589996 3.559600 128.465736 
0.000000 0.000000 0.000000 -0.000000 1.019410 0.004777 -0.000000 -0.000000 1.456275 -0.000000 -43.906683 0.000000 -0.000000 0.000002 1.471446 -0.000000 -1.133461 -5.550921 0.625744 0.000000 0.917755 0.000003 132.778386 -0.000001 -0.629534 0.000001 0.940221 -0.000001 1.709736 -1.457210 -0.000001 0.113772 1.960661 -88.303561 90.572905 0.000222 -0.669733 -0.113771 0.388340 -0.565956 3.556562 127.101433 
0.000000 0.000000 0.000000 -0.000000 1.019410 0.006272 -0.000000 0.000000 1.456275 -0.000000 -43.699366 0.000000 -0.000000 0.000002 1.471446 -0.000000 -1.133461 -6.615737 0.625745 0.000000 0.917755 0.000004 132.345898 -0.000001 -0.629534 0.000001 0.940221 0.000000 1.709737 -1.735588 -0.000001 0.113772 1.960661 -88.303609 90.687140 0.000181 -0.669733 -0.113771 0.388341 -0.539316 3.552514 125.584298 
0.000000 0.000000 0.000000 -0.000000 1.019410 0.007863 -0.000000 -0.000000 1.456275 -0.000000 -43.478843 -0.000000 -0.000000 0.000002 1.471446 -0.000000 -1.133460 -7.748416 0.625744 0.000000 0.917755 0.000004 131.885871 -0.000001 -0.629534 0.000001 0.940221 -0.000000 1.709736 -2.031708 -0.000002 0.113772 1.960661 -88.303650 90.808663 0.000156 -0.669733 -0.113771 0.388340 -0.511107 3.547436 123.970502 
0.000000 0.000000 0.000000 -0.000000 1.019410 0.009480 -0.000000 0.000000 1.456275 -0.000000 -43.254533 -0.000000 -0.000000 0.000002 1.471446 -0.000000 -1.133462 -8.900511 0.625745 0.000000 0.917755 0.000004 131.417962 -0.000002 -0.629534 0.000001 0.940221 -0.000000 1.709736 -2.332905 -0.000000 0.113772 1.960660 -88.303684 90.932269 0.000138 -0.669733 -0.113771 0.388340 -0.482574 3.541460 122.329043 
0.000000 0.000000 0.000000 -0.000000 1.019410 0.011057 -0.000000 0.000000 1.456275 -0.000000 -43.035871 -0.000000 -0.000000 0.000002 1.471446 -0.000000 -1.133462 -10.023579 0.625745 0.000000 0.917755 0.000005 130.961829 -0.000002 -0.629534 0.000001 0.940221 -0.000000 1.709736 -2.626510 -0.000001 0.113772 1.960660 -88.303705 91.052753 0.000116 -0.669733 -0.113771 0.388340 -0.454935 3.534852 120.728948 
